<svg width="41" height="8" viewBox="0 0 41 8" fill="none" xmlns="http://www.w3.org/2000/svg">
<path d="M3.15576 7.01465C2.20781 7.01465 1.44505 6.6882 0.86749 6.03531C0.289931 5.38241 0.00115065 4.54118 0.00115065 3.51162C0.00115065 2.49461 0.286792 1.65652 0.858074 0.997353C1.43563 0.331903 2.21408 -0.000821318 3.19342 -0.000821318C3.95932 -0.000821318 4.57768 0.19693 5.04852 0.592433C5.51936 0.987936 5.80186 1.50586 5.89603 2.14619H5.06735C4.98574 1.7193 4.77857 1.37716 4.44585 1.11977C4.1194 0.862379 3.69565 0.733684 3.17459 0.733684C2.45264 0.733684 1.88764 0.994213 1.47958 1.51527C1.07152 2.03005 0.86749 2.6955 0.86749 3.51162C0.86749 4.34029 1.0778 5.00888 1.49841 5.51739C1.9253 6.01961 2.48717 6.27072 3.18401 6.27072C3.78668 6.27072 4.25124 6.09495 4.57768 5.74339C4.91041 5.39183 5.09874 4.94924 5.14269 4.41563H5.98078C5.9745 4.74835 5.89603 5.09049 5.74536 5.44205C5.60097 5.78733 5.4095 6.07611 5.17094 6.30839C4.68755 6.77923 4.01582 7.01465 3.15576 7.01465ZM6.25703 6.88281L8.73363 0.149846H9.68472L12.1707 6.88281H11.2479L10.5322 4.82996H7.84845L7.12337 6.88281H6.25703ZM8.89371 1.88253L8.09329 4.14254H10.2968L9.52463 1.88253L9.2233 0.931435H9.20446C9.08519 1.3081 8.9816 1.62513 8.89371 1.88253ZM12.8999 6.88281V0.149846H15.7061C16.4092 0.149846 16.9429 0.366431 17.307 0.799601C17.6083 1.15116 17.759 1.57805 17.759 2.08028C17.759 2.70806 17.5769 3.19459 17.2128 3.53987C16.8487 3.88515 16.3057 4.05779 15.5837 4.05779H13.7475V6.88281H12.8999ZM13.7475 0.884352V3.37037H15.5178C15.9824 3.37037 16.3308 3.26051 16.5631 3.04078C16.8016 2.82106 16.9209 2.51345 16.9209 2.11794C16.9209 1.71616 16.8016 1.41169 16.5631 1.20452C16.3308 0.991075 15.9981 0.884352 15.5649 0.884352H13.7475ZM21.0222 7.01465C20.1182 7.01465 19.4214 6.79178 18.9317 6.34606C18.4483 5.90033 18.1878 5.31963 18.1501 4.60396H18.9788C19.0918 5.75908 19.7855 6.33664 21.0599 6.33664C21.5433 6.33664 21.9294 6.22992 22.2182 6.01647C22.5132 5.79675 22.6608 5.48286 22.6608 5.0748C22.6608 4.89274 22.6262 4.73266 22.5572 4.59455C22.4881 4.45643 22.4034 4.34343 22.3029 4.25554C22.2088 4.16765 22.0644 4.08604 21.8698 4.01071C21.6751 3.93537 21.4931 3.87573 21.3236 3.83179C21.1604 3.78785 20.9344 3.73448 20.6456 3.67171C20.3003 3.59637 20.0147 3.52104 19.7887 3.4457C19.5627 3.36409 19.3367 3.25423 19.1106 3.11612C18.8846 2.97801 18.7151 2.80223 18.6021 2.58878C18.4954 2.36906 18.4421 2.10539 18.4421 1.79778C18.4421 1.24533 18.6492 0.812157 19.0636 0.498265C19.4842 0.178096 20.0398 0.0180119 20.7303 0.0180119C22.2433 0.0180119 23.0939 0.717989 23.2823 2.11794H22.4818C22.4191 1.64083 22.2401 1.28299 21.9451 1.04444C21.65 0.799601 21.2514 0.677183 20.7492 0.677183C20.2846 0.677183 19.9142 0.771351 19.638 0.959686C19.368 1.14802 19.2331 1.41483 19.2331 1.76011C19.2331 1.91078 19.2613 2.04575 19.3178 2.16503C19.3806 2.27803 19.4591 2.37533 19.5532 2.45695C19.6537 2.53228 19.7824 2.60134 19.9393 2.66411C20.1025 2.72689 20.2626 2.78025 20.4196 2.8242C20.5765 2.86187 20.768 2.90267 20.994 2.94662C21.3079 3.0094 21.5653 3.06903 21.7662 3.12553C21.9671 3.17576 22.1899 3.25423 22.4348 3.36095C22.6796 3.46768 22.8679 3.59009 22.9998 3.72821C23.1379 3.86632 23.254 4.04837 23.3482 4.27438C23.4486 4.4941 23.4988 4.75149 23.4988 5.04655C23.4988 5.66178 23.2697 6.14517 22.8114 6.49673C22.3594 6.84201 21.763 7.01465 21.0222 7.01465ZM27.0277 6.9864C26.243 6.9864 25.6152 6.8012 25.1443 6.43081C24.6798 6.06042 24.4475 5.486 24.4475 4.70755V0.149846H25.295V4.6228C25.295 5.71514 25.882 6.26131 27.0559 6.26131C28.1922 6.26131 28.7604 5.71514 28.7604 4.6228V0.149846H29.6079V4.70755C29.6079 5.47972 29.3693 6.05414 28.8922 6.43081C28.4214 6.8012 27.7999 6.9864 27.0277 6.9864ZM30.7586 6.88281V0.149846H31.6061V6.10122H35.1374V6.88281H30.7586ZM35.9728 6.88281V0.149846H40.7282V0.893768H36.8203V3.02195H40.3704V3.73762H36.8203V6.10122H40.8412V6.88281H35.9728Z" fill="black"/>
</svg>
