<svg xmlns="http://www.w3.org/2000/svg" width="11" height="12" viewBox="0 0 11 12" fill="none"><path d="M7.51001 3.40423H8.20719C8.8325 3.40423 9.35343 3.88355 9.40536 4.5067L9.80613 9.31596C9.86454 10.0169 9.31137 10.6181 8.60796 10.6181H1.60279C0.899387 10.6181 0.346212 10.0169 0.404627 9.31596L0.805399 4.5067C0.857328 3.88355 1.37825 3.40423 2.00356 3.40423H2.70075M7.51001 3.40423H2.70075M7.51001 3.40423L7.51001 2.80307C7.51001 2.16532 7.25666 1.55369 6.80571 1.10274C6.35475 0.651782 5.74313 0.398438 5.10538 0.398438C4.46763 0.398438 3.856 0.651782 3.40505 1.10274C2.95409 1.55369 2.70074 2.16532 2.70074 2.80307L2.70075 3.40423M7.51001 3.40423L7.51001 5.80886M2.70075 3.40423L2.70074 5.80886" stroke="black" stroke-width="1.1" stroke-linecap="round" stroke-linejoin="round"></path></svg>