<svg xmlns="http://www.w3.org/2000/svg" width="20" height="20" viewBox="0 0 24 24" fill="none">
<path class="stroke" d="M16.0004 8H17.1601C18.2003 8 19.0668 8.79732 19.1532 9.83391L19.8199 17.8339C19.917 18.9999 18.9968 20 17.8268 20H6.17397C5.00389 20 4.0837 18.9999 4.18087 17.8339L4.84754 9.83391C4.93392 8.79732 5.80046 8 6.84063 8H8.00037M16.0004 8H8.00037M16.0004 8L16.0004 7C16.0004 5.93913 15.5789 4.92172 14.8288 4.17157C14.0786 3.42143 13.0612 3 12.0004 3C10.9395 3 9.92208 3.42143 9.17194 4.17157C8.42179 4.92172 8.00037 5.93913 8.00037 7L8.00037 8M16.0004 8L16.0004 12M8.00037 8L8.00037 12" stroke="black" stroke-width="1.5" stroke-linecap="round" stroke-linejoin="round"></path>
</svg>